PathFileType	4	(X/Y/Z)	C:/Users/opensim2020/Desktop/walking_exp_matlab/subject01_walking08_straight_01.trc																																																																																																																															
DataRate	CameraRate	NumFrames	NumMarkers	Units	OrigDataRate	OrigDataStartFrame	OrigNumFrames																																																																																																																											
100	100	4	43	mm	100	918	377																																																																																																																											
Frame#	Time	LFHD			RFHD			LBHD			RBHD			C7			T10			CLAV			STRN			RBAK			LSHO			LUPA			LELB			LFRM			LWRA			LWRB			LFIN			RSHO			RUPA			RELB			RFRM			RWRA			RWRB			RFIN			LASI			RASI			LPSI			RPSI			LTHI			LKNE			LTIB			LANK			LHEE			LTOE			RTHI			RKNE			RTIB			RANK			RHEE			RTOE			*39			*40			*41			*42		
		X1	Y1	Z1	X2	Y2	Z2	X3	Y3	Z3	X4	Y4	Z4	X5	Y5	Z5	X6	Y6	Z6	X7	Y7	Z7	X8	Y8	Z8	X9	Y9	Z9	X10	Y10	Z10	X11	Y11	Z11	X12	Y12	Z12	X13	Y13	Z13	X14	Y14	Z14	X15	Y15	Z15	X16	Y16	Z16	X17	Y17	Z17	X18	Y18	Z18	X19	Y19	Z19	X20	Y20	Z20	X21	Y21	Z21	X22	Y22	Z22	X23	Y23	Z23	X24	Y24	Z24	X25	Y25	Z25	X26	Y26	Z26	X27	Y27	Z27	X28	Y28	Z28	X29	Y29	Z29	X30	Y30	Z30	X31	Y31	Z31	X32	Y32	Z32	X33	Y33	Z33	X34	Y34	Z34	X35	Y35	Z35	X36	Y36	Z36	X37	Y37	Z37	X38	Y38	Z38	X39	Y39	Z39	X40	Y40	Z40	X41	Y41	Z41	X42	Y42	Z42	X43	Y43	Z43
																																																																																																																																		
189	1.88	-276.05453	1677.27173	-1032.40833	-263.08066	1687.08899	-919.33942	-375.82336	1602.17285	-1023.20789	-364.68988	1610.27576	-903.06805	-375.48584	1430.8075	-977.73492	-405.08069	1137.96118	-957.94623	-230.86412	1364.80029	-978.89276	-186.27458	1208.82642	-980.0686	-424.23575	1239.22791	-891.06335	-295.78351	1387.99939	-1139.61853	-336.39084	1200.12646	-1214.71997	-360.77106	1052.95349	-1206.29395	-338.21927	942.03674	-1230.276	-274.95996	817.40411	-1213.17017	-331.12109	819.69116	-1235.67725	-294.36664	742.40363	-1242.81348	-287.14307	1393.78381	-825.50446	-320.71265	1191.73938	-714.82159	-307.10751	1066.80542	-711.16382	-257.6301	954.49048	-689.33655	-164.31004	852.99298	-724.80609	-201.29797	845.99542	-680.20233	-152.05888	776.48859	-688.73175	-231.74113	938.30115	-1065.16345	-237.73335	926.4223	-846.16498	-419.34488	945.35144	-1018.49078	-421.82654	945.36084	-874.04858	-196.74281	618.71765	-1142.4967	-171.92169	487.07529	-1126.88232	-185.7925	301.65683	-1144.0575	-156.44756	79.14288	-1103.65344	-189.81413	39.88657	-1047.39502	-10.24421	69.87877	-1113.95032	-324.76645	594.90015	-805.77307	-333.91125	436.87427	-836.2536	-404.04993	274.23502	-832.19116	-453.18005	74.89177	-886.56647	-504.46307	38.25766	-937.4704	-314.9501	33.83167	-884.90057	-284.5593	1715.4856	-941.48242	1973.07971	1023.61237	-3102.08423	2012.46729	1021.9397	-3140.70801	NaN	NaN	NaN
190	1.89	-270.05469	1676.62109	-1033.50708	-257.03638	1686.55945	-920.38306	-369.91153	1601.55029	-1024.29041	-358.78867	1609.7843	-904.1286	-369.44287	1430.05334	-978.61499	-398.73981	1137.13855	-958.50305	-224.88937	1364.17896	-979.84167	-180.01097	1208.22095	-980.85034	-418.14133	1238.53699	-891.72955	-290.01077	1387.2345	-1140.57117	-331.04117	1199.32703	-1215.35632	-355.69843	1052.37329	-1206.82556	-333.86935	941.31689	-1230.90845	-271.30859	816.26636	-1214.14368	-327.56104	818.91577	-1236.30457	-291.37723	741.38403	-1243.61096	-281.08185	1393.14539	-826.3634	-314.76953	1191.15271	-715.6391	-301.05844	1066.24829	-711.78864	-251.51981	953.97546	-689.9754	-158.10289	852.21539	-725.38184	-195.14905	845.37988	-680.76007	-145.72597	775.8642	-689.40692	-225.12086	937.48358	-1065.49084	-231.87003	925.73688	-846.49115	-412.96317	944.87469	-1019.3078	-416.0285	945.21515	-874.84149	-190.87117	617.9035	-1143.26367	-166.46301	486.4216	-1127.55066	-176.40443	301.02841	-1144.88586	-141.05469	79.15034	-1104.63171	-173.95454	39.30504	-1048.3916	5.67994	72.36119	-1113.79041	-320.78595	594.47406	-805.89221	-331.24542	436.25443	-836.69751	-402.3551	274.46478	-831.90955	-452.53726	75.40056	-886.33588	-504.39648	38.80955	-937.20386	-315.00995	33.75709	-884.82788	-278.53326	1714.88904	-942.55225	1973.16321	1023.57184	-3101.97705	2012.54712	1022.00067	-3140.72925	NaN	NaN	NaN
191	1.9	-264.01138	1675.91956	-1034.60596	-251.03995	1685.90027	-921.54218	-363.75116	1600.90015	-1025.40063	-352.79828	1609.21448	-905.29462	-363.38034	1429.27698	-979.58673	-392.42514	1136.37976	-959.19458	-218.73389	1363.4873	-981.16809	-173.78661	1207.58105	-981.68115	-411.93188	1237.771	-892.56573	-284.18518	1386.40894	-1141.59192	-325.56418	1198.50049	-1216.06799	-350.50858	1051.63733	-1207.40686	-329.34067	940.56079	-1231.60999	-267.38696	815.16742	-1215.17065	-323.76108	818.08356	-1237.03784	-288.0816	740.3277	-1244.43542	-275.06134	1392.52917	-827.33789	-308.6561	1190.56934	-716.4892	-294.89001	1065.69055	-712.60248	-245.44286	953.40576	-690.71771	-152.51108	851.52515	-726.24493	-189.20636	844.75928	-681.43964	-140.19096	775.17944	-690.06946	-218.53914	936.6969	-1065.80103	-226.00014	924.93756	-846.95062	-406.58112	944.28094	-1020.19385	-410.26025	944.94635	-875.85931	-184.87128	617.24451	-1143.89063	-160.81129	485.78683	-1128.25635	-167.29012	300.40488	-1145.62854	-126.91521	79.17413	-1105.42627	-159.23001	38.70451	-1049.5	20.36663	75.25529	-1113.63257	-316.64679	594.0119	-806.13226	-328.13101	436.03812	-836.63214	-400.50125	274.51517	-831.85638	-452.46512	75.71765	-886.10052	-504.36499	39.62438	-936.92908	-314.92261	33.68209	-884.73352	-272.55923	1714.29553	-943.6853	1973.0946	1023.41406	-3101.93872	2012.61987	1022.05225	-3140.67017	NaN	NaN	NaN
192	1.91	-257.93866	1675.22412	-1035.90857	-245.02101	1685.33032	-922.81366	-357.69025	1600.18384	-1026.63501	-346.81033	1608.65137	-906.51642	-357.18716	1428.61987	-980.77545	-386.10461	1135.60498	-960.08649	-212.62865	1362.79626	-981.91705	-167.45418	1206.92456	-982.56671	-405.82663	1237.08289	-893.47083	-278.20694	1385.59106	-1142.74658	-319.93381	1197.65625	-1216.94312	-345.16605	1050.98059	-1208.11682	-324.64996	939.79706	-1232.34058	-263.19992	814.06049	-1216.17334	-319.64441	817.26862	-1237.83716	-284.41968	739.29132	-1245.3335	-269.1011	1391.83118	-828.3382	-302.57553	1189.93018	-717.48492	-289.17593	1065.00183	-713.4281	-239.47839	952.77332	-691.53168	-146.32671	850.77643	-726.73676	-183.68793	844.13983	-682.18848	-134.36957	774.49927	-690.68927	-211.79524	935.85114	-1066.13367	-220.0233	924.27704	-847.45337	-400.07239	943.7403	-1021.22424	-404.08334	944.513	-876.90216	-178.54114	616.67084	-1144.48145	-154.9081	485.23196	-1128.83618	-158.42528	299.85352	-1146.36084	-113.82673	79.24617	-1106.29321	-145.71085	37.99716	-1050.66833	33.72314	77.99727	-1113.58301	-312.33096	593.68793	-806.38458	-324.98605	435.58945	-836.71149	-398.78799	274.83664	-831.62335	-452.04874	76.18495	-885.88464	-504.18301	40.31905	-936.70667	-314.89905	33.62088	-884.61438	-266.56427	1713.72412	-944.90643	1973.11609	1023.47052	-3101.81372	2012.54175	1021.9314	-3140.81836	NaN	NaN	NaN
